<?xml version="1.0" encoding="UTF-8" standalone="no"?>
<svg xmlns:rdf="http://www.w3.org/1999/02/22-rdf-syntax-ns#" xmlns="http://www.w3.org/2000/svg" height="93.14001" width="119.44999" version="1.1" xmlns:cc="http://creativecommons.org/ns#" xmlns:dc="http://purl.org/dc/elements/1.1/" viewBox="0 0 119.44999 93.14001"><defs><clipPath id="clip-path" transform="translate(-0.0001 -0.00024)"><rect width="118.45" height="92.14001" fill="none"/></clipPath></defs><g clip-path="url(#clip-path)"><path d="M76.2021,92.14026l-9.03-17.241h-28.01v17.241H.0001l5.53-14.279v-21.403l-4.23-10.922,4.23-10.923v-20.334L.0001.00024h75.266a37.00442,37.00442,0,0,1,20.5,5.867,42.436,42.436,0,0,1,12.394,12.709,58.23547,58.23547,0,0,1,7.725,18.208l.134.666-.134.665a56.39062,56.39062,0,0,1-4.287,12.076,47.968,47.968,0,0,1-11.852,15.85706l5.931,10.83295,12.773,15.259Zm-37.041-48.79c8.562-.002,30.792-.007,34.554-.007,1.221,0,5.273-.436,7.541-5.894-2.268-5.463-6.32-5.9-7.541-5.9-3.39,0-23.658.005-34.554.007Z" transform="translate(-0.0001 -0.00024)" fill="#001e61"/><path d="M77.2192,90.46075l-9.032-17.24H37.4842v17.24H2.45121l4.758-12.285v-22.031l-4.109-10.609,4.109-10.609v-20.962l-4.758-12.286h72.815a35.35127,35.35127,0,0,1,19.586,5.597,40.76051,40.76051,0,0,1,11.899,12.214,56.29343,56.29343,0,0,1,7.488,17.627l.068.333-.068.333a54.54581,54.54581,0,0,1-4.154,11.679,45.92143,45.92143,0,0,1-12.478,16.175l6.677,12.196,10.571,12.628Zm-39.737-45.431c6.81-.001,32.19-.007,36.233-.007,6.097,0,8.701-5.829,9.343-7.574-.64-1.739-3.244-7.578-9.343-7.578-3.573,0-25.896.004-36.233.007Z" transform="translate(-0.0001 -0.00024)" fill="#fff"/><path d="M96.4231,66.95734h-3.71c15.785-9.273,19.88-29.522,19.88-29.522s-6.892-34.092-37.327-34.092H4.9021l3.986,10.294v21.589l-3.987,10.295,3.987,10.296v22.657l-3.986,10.294h30.903v-15.449l-3.563-1.792h36.961l9.032,17.241h33.025l-8.37-9.999Zm-22.708-20.27c-4.677,0-37.912.00806-37.912.00806v-16.717l-3.564-1.793s36.799-.008,41.476-.008c8.401,0,11.115,9.258,11.115,9.258s-2.714,9.252-11.115,9.252" transform="translate(-0.0001 -0.00024)" fill="#001e61"/><path d="M99.53611,37.28027a35.26533,35.26533,0,0,0-4.716-11.06995c-4.712-7.23-11.486-11.052-19.592-11.052H35.8051v1.679h39.423c7.615,0,13.733,3.459,18.181,10.283a34.42032,34.42032,0,0,1,4.445,10.327,34.42023,34.42023,0,0,1-4.445,10.327c-4.448,6.824-10.566,10.283-18.181,10.283H35.8051v1.679h39.423c.556,0,1.106-.02,1.65-.056l11.908,22.5h1.919l-12.009-22.691c6.575-.947,12.101-4.633,16.124-10.805a35.26595,35.26595,0,0,0,4.716-11.07l.034-.167Z" transform="translate(-0.0001 -0.00024)" fill="#fff"/><path d="M23.2053,10.52606a3.13941,3.13941,0,0,1,3.343,3.182,2.94208,2.94208,0,0,1-1.569,2.697l1.246,2.229h-1.994l-.953-1.803h-3.02v1.803h-1.833v-8.108Zm-2.947,4.633h2.874a1.408,1.408,0,0,0,1.583-1.451,1.45178,1.45178,0,0,0-1.583-1.511h-2.874Z" transform="translate(-0.0001 -0.00024)" fill="#fff"/><path d="M22.3476,31.425a4.26146,4.26146,0,1,1,0-8.504,4.26146,4.26146,0,1,1,0,8.504m0-1.569a2.68314,2.68314,0,1,0,0-5.366,2.68315,2.68315,0,1,0,0,5.366" transform="translate(-0.0001 -0.00024)" fill="#fff"/><path d="M25.0159,38.50513a3.01867,3.01867,0,0,0-2.712-1.364,2.48693,2.48693,0,0,0-2.684,2.625,2.52515,2.52515,0,0,0,2.684,2.624,3.02,3.02,0,0,0,2.712-1.363l1.422.821a4.42673,4.42673,0,0,1-4.105,2.17c-2.595,0-4.531-1.628-4.531-4.252a4.20262,4.20262,0,0,1,4.531-4.252,4.42673,4.42673,0,0,1,4.105,2.17Z" transform="translate(-0.0001 -0.00024)" fill="#fff"/><polygon points="20.244 48.305 20.244 51.296 22.605 51.296 24.642 48.305 26.754 48.305 24.159 52.058 26.944 56.413 24.774 56.413 22.648 52.967 20.244 52.967 20.244 56.413 18.426 56.413 18.426 48.305 20.244 48.305" fill="#fff"/><polygon points="25.991 60.898 25.991 62.555 20.258 62.555 20.258 64.051 25.229 64.051 25.229 65.707 20.258 65.707 20.258 67.32 25.991 67.32 25.991 69.006 18.425 69.006 18.425 60.898 25.991 60.898" fill="#fff"/><polygon points="25.991 73.491 25.991 75.133 23.073 75.133 23.073 81.599 21.241 81.599 21.241 75.133 18.425 75.133 18.425 73.491 25.991 73.491" fill="#fff"/></g></svg>